<svg class="injected-svg" id="svg-d0e3a2ab-8efb-4619-b69f-20a11a444322" height="120px" width="120px" viewBox="0 0 540 508"
     xmlns="http://www.w3.org/2000/svg">
    <g xmlns="http://www.w3.org/2000/svg" fill="#78ba52" id="shape-svg">
        <title>Ресурс 16</title>
        <g id="Слой_2" data-name="Слой 2">
            <g id="Слой_1-2" data-name="Слой 1">
                <path transform="translate(365, 198) scale(0.6,0.6)"
                      d="M107,52.43a53.52,53.52,0,0,1-107,0C0,23.11,24,0,53.52,0S107,23.11,107,52.43Z"></path>
            </g>
        </g>
    </g>
    <g xmlns="http://www.w3.org/2000/svg" fill="#ffffff" id="icon-svg">
        <path transform="translate(346.5, 175.5) scale(0.5,0.5)"
              d="M 112.305 45.468 C 107.873 47.395, 100.354 54.539, 97.334 59.692 C 95.921 62.104, 94.058 64, 93.101 64 C 92.161 64, 89.382 65.275, 86.925 66.833 C 84.468 68.391, 80.333 69.957, 77.735 70.313 C 75.138 70.669, 70.775 72.094, 68.039 73.480 C 65.304 74.866, 61.989 76, 60.673 76 C 59.356 76, 56.621 77.125, 54.595 78.500 C 52.334 80.034, 49.480 81.008, 47.206 81.022 C 41.150 81.058, 35.419 84.258, 33.032 88.937 C 31.157 92.613, 30.672 92.954, 28.223 92.326 C 18.531 89.841, 11.551 94.077, 12.773 101.702 C 13.155 104.079, 19.264 110, 21.336 110 C 22.032 110, 23.529 111.913, 24.662 114.250 C 26.558 118.160, 26.604 118.752, 25.228 121.649 C 22.464 127.470, 25.478 132.510, 36.888 141.147 C 50.513 151.462, 64.485 156.014, 82.410 155.978 C 88.509 155.965, 106.775 155.317, 123 154.537 C 149.242 153.274, 153.477 152.833, 161.344 150.536 C 171.703 147.512, 174.706 146.075, 179.545 141.826 C 188.862 133.646, 189.441 124.429, 182.007 102.619 C 179.261 94.562, 175.626 85.220, 173.929 81.859 C 168.508 71.121, 158.223 62.092, 151.333 62.022 C 149.991 62.008, 146.798 59.534, 142.944 55.520 C 135.146 47.400, 128.637 43.986, 121.054 44.039 C 117.999 44.061, 114.062 44.703, 112.305 45.468 M 115.788 47.163 C 111.200 48.421, 103.600 54.984, 99.809 60.962 C 97.781 64.160, 95.759 65.921, 92.777 67.087 C 88.032 68.942, 86.968 70.538, 89.863 71.456 C 92.943 72.434, 104.098 84.916, 108.269 92.051 C 113.164 100.426, 117.698 112.246, 118.587 118.947 C 119.643 126.902, 117.085 125.114, 115.007 116.445 C 111.609 102.264, 104.610 89.473, 94.928 79.750 L 88.207 73 81.853 73.045 C 78.359 73.070, 74.205 73.643, 72.622 74.319 L 69.744 75.548 74.468 78.524 C 79.942 81.972, 86.777 90.622, 91.606 100.211 C 95.765 108.469, 100.411 123.989, 99.112 125.288 C 97.938 126.462, 96.657 124.011, 95.089 117.590 C 90.807 100.048, 76.970 80.343, 67.717 78.607 C 65.660 78.221, 62.144 78.430, 59.765 79.079 C 55.893 80.135, 55.684 80.346, 57.500 81.371 C 62.053 83.941, 68.724 92.009, 72.228 99.185 C 76.092 107.096, 81 122.442, 81 126.612 C 81 130.480, 79.166 129.348, 77.984 124.750 C 72.347 102.820, 65.693 89.925, 57.987 85.994 C 52.703 83.298, 43.668 83.295, 39.250 85.989 C 37.462 87.079, 36 88.387, 36 88.896 C 36 89.405, 37.950 90.766, 40.334 91.920 C 42.718 93.074, 45.611 95.026, 46.764 96.259 C 54.053 104.054, 65.575 131.358, 60.920 129.807 C 60.326 129.609, 58.946 126.759, 57.852 123.473 C 51.167 103.391, 38.925 89.138, 32.982 94.517 C 31.480 95.876, 30.538 95.953, 27.015 95.004 C 21.575 93.539, 17.167 94.540, 15.794 97.553 C 14.375 100.668, 16.886 104.637, 21.495 106.562 C 24.051 107.630, 25.437 109.275, 27.406 113.575 C 29.741 118.676, 29.841 119.389, 28.489 121.319 C 24.986 126.321, 28.232 131.600, 39.900 139.878 C 44.961 143.469, 47.396 143.661, 54.916 141.065 C 59.086 139.625, 60.870 139.439, 62.666 140.258 C 64.347 141.024, 65.711 140.997, 67.540 140.164 C 69.585 139.232, 70.544 139.311, 72.464 140.568 C 74.627 141.986, 75.132 141.983, 77.922 140.541 C 80.732 139.087, 81.204 139.088, 83.427 140.544 C 85.581 141.956, 86.176 141.972, 88.637 140.682 C 91.080 139.402, 91.693 139.408, 93.708 140.728 C 95.728 142.052, 96.267 142.056, 98.250 140.760 C 99.949 139.650, 101.070 139.546, 102.831 140.334 C 104.450 141.059, 106.006 141.059, 107.931 140.332 C 109.982 139.558, 111.343 139.624, 113.182 140.587 C 115.207 141.649, 116.119 141.651, 118.142 140.601 C 119.710 139.788, 121.441 139.619, 122.855 140.142 C 128.279 142.149, 142.312 136.405, 145.198 130.996 C 148.564 124.689, 161.859 113.778, 177.539 104.455 C 179.216 103.458, 179.215 103.158, 177.527 97.955 C 172.534 82.566, 163.765 69.471, 156.388 66.389 C 151.732 64.444, 150.700 64.571, 151.965 66.934 C 153.619 70.025, 153.183 72.630, 150.472 75.851 C 143.111 84.599, 125.136 83.529, 126.201 74.407 C 126.555 71.373, 126.444 71.273, 122.704 71.273 C 118.503 71.273, 113.721 68.413, 113.161 65.565 C 112.506 62.229, 115.254 57.935, 119.719 55.319 C 128.770 50.015, 140.817 52.978, 139.750 60.247 C 139.375 62.807, 139.594 63, 142.869 63 L 146.392 63 142.946 59.332 C 132.610 48.330, 124.609 44.745, 115.788 47.163 M 123 55.121 C 118.829 56.779, 115 61.107, 115 64.164 C 115 68.320, 118.781 70.423, 124.942 69.693 L 129.822 69.115 128.521 71.622 C 126.652 75.225, 127.777 78.009, 131.777 79.680 C 139.136 82.755, 151 76.863, 151 70.134 C 151 66.112, 148.334 64.731, 141.402 65.163 C 136.299 65.481, 134.744 64.894, 137 63.500 C 138.891 62.331, 138.099 57.183, 135.777 55.557 C 133.300 53.821, 126.824 53.600, 123 55.121 M 121.582 60.316 C 118.618 62.483, 119.960 65.453, 124.059 65.799 C 128.028 66.133, 131.681 63.218, 130.653 60.537 C 129.917 58.620, 124.096 58.478, 121.582 60.316 M 136 67.709 C 133.619 68.585, 131 71.186, 131 72.676 C 131 73.428, 132.137 74.561, 133.526 75.194 C 139.056 77.713, 146.299 70.836, 141.066 68.035 C 138.969 66.913, 138.286 66.869, 136 67.709 M 174.087 109.043 C 163.055 115.076, 149.960 126.199, 146.956 132.086 C 143.236 139.378, 133.235 142.785, 115 142.972 C 107.786 143.046, 97.996 143.104, 95.750 143.086 C 94.237 143.073, 92.100 143.063, 91 143.063 C 89.900 143.063, 87.650 143.055, 86 143.046 C 81.185 143.017, 78.189 143.025, 75.250 143.073 C 73.737 143.098, 69.350 142.911, 65.500 142.658 C 59.369 142.254, 55.882 142.702, 50 144.648 C 46.298 145.873, 61.933 151.547, 72.750 152.903 C 77.779 153.534, 91.102 153.249, 116.250 151.971 C 146.224 150.448, 153.776 149.765, 159.872 148.027 C 177.423 143.023, 184 136.397, 184 123.718 C 184 118.101, 181.857 108.772, 180.112 106.795 C 179.769 106.407, 177.058 107.419, 174.087 109.043"
              stroke="none" fill-rule="evenodd"></path>
    </g>
    <path xmlns="http://www.w3.org/2000/svg" id="SvgjsPath167069229"
          d="M46.14-51.03L20.37-12.48Q20.15-12.19 20.29-11.90Q20.44-11.61 20.80-11.61L20.80-11.61L43.58-11.61L43.58 0L-2.12 0L23.72-38.54Q23.87-38.84 23.72-39.09Q23.58-39.35 23.21-39.35L23.21-39.35L0.44-39.35L0.44-51.03L46.14-51.03ZM85.92-51.10L96.87-51.10L96.87 0.07L85.19 0.07L85.19-21.24Q85.19-21.46 84.94-21.54Q84.68-21.61 84.53-21.39L84.53-21.39L78.04-7.81L68.91-7.81L62.34-21.32Q62.20-21.61 61.98-21.54Q61.76-21.46 61.76-21.17L61.76-21.17L61.76 0.07L50.08 0.07L50.08-51.10L60.95-51.10L73.15-25.84Q73.29-25.70 73.47-25.70Q73.66-25.70 73.73-25.84L73.73-25.84L85.92-51.10ZM146.29-39.27L116.95-39.27Q116.36-39.27 116.36-38.69L116.36-38.69L116.36-28.98Q116.36-28.32 116.95-28.32L116.95-28.32L140.67-28.32L140.67-16.72L116.95-16.72Q116.36-16.72 116.36-16.06L116.36-16.06L116.36-12.26Q116.36-11.68 116.95-11.68L116.95-11.68L146.29-11.68L146.29 0L104.68 0L104.68-51.10L146.29-51.10L146.29-39.27ZM156.29-51.10L156.29-51.10L167.97-51.10L167.97 0.07L156.29 0.07L156.29-51.10ZM219.36-51.10L197.17-25.55L219.36 0.07L203.96 0.07L189.07-17.15Q188.70-17.52 188.27-17.34Q187.83-17.15 187.83-16.64L187.83-16.64L187.83 0.07L175.86 0.07L175.86-51.10L187.83-51.10L187.83-34.38Q187.83-33.87 188.27-33.73Q188.70-33.58 189.07-33.95L189.07-33.95L203.96-51.10L219.36-51.10ZM256.45-51.10L274.84 0.07L262.43 0.07L260.54-5.11Q260.39-5.62 259.88-5.62L259.88-5.62L237.83-5.62Q237.40-5.62 237.18-5.11L237.18-5.11L235.35 0.07L222.94 0.07L241.34-51.10L256.45-51.10ZM248.20-35.77L241.92-18.25Q241.78-17.88 241.99-17.59Q242.21-17.30 242.58-17.30L242.58-17.30L255.21-17.30Q256.16-17.30 255.86-18.25L255.86-18.25L249.59-35.77Q249.37-36.28 248.86-36.28Q248.35-36.28 248.20-35.77L248.20-35.77Z"
          fill="#000000" fontsize="73" transform="matrix(1,0,0,1,120.16000000000003,272.515)"></path>
</svg>
