<svg class="injected-svg" viewBox="0 0 540 508" xmlns="http://www.w3.org/2000/svg"><g data-name="Слой 2" xmlns="http://www.w3.org/2000/svg" fill="#78ba52"><path d="M429.2 229.458a32.112 32.112 0 0 1-64.2 0C365 211.866 379.4 198 397.112 198s32.088 13.866 32.088 31.458" data-name="Слой 1"/></g><path d="M402.653 198.234c-2.216.963-5.976 4.535-7.486 7.112-.706 1.206-1.638 2.154-2.116 2.154-.47 0-1.86.637-3.089 1.416-1.228.78-3.296 1.563-4.594 1.74s-3.48.891-4.849 1.584c-1.367.693-3.024 1.26-3.683 1.26s-2.026.563-3.038 1.25c-1.131.767-2.558 1.254-3.695 1.261-3.028.018-5.894 1.618-7.087 3.958-.937 1.838-1.18 2.008-2.405 1.694-4.846-1.243-8.335.875-7.724 4.688.19 1.189 3.245 4.149 4.281 4.149.348 0 1.096.957 1.663 2.125.948 1.955.971 2.251.283 3.7-1.382 2.91.125 5.43 5.83 9.749 6.813 5.157 13.798 7.433 22.761 7.415 3.05-.006 12.183-.33 20.295-.72 13.121-.632 15.238-.853 19.172-2.001 5.18-1.512 6.681-2.23 9.1-4.355 4.659-4.09 4.949-8.699 1.232-19.603-1.374-4.029-3.191-8.7-4.04-10.38-2.71-5.37-7.853-9.884-11.298-9.919-.67-.007-2.267-1.244-4.194-3.251-3.899-4.06-7.154-5.767-10.945-5.74-1.527.01-3.496.331-4.374.714m1.741.847c-2.294.63-6.094 3.911-7.99 6.9-1.014 1.599-2.024 2.48-3.515 3.063-2.373.927-2.905 1.725-1.457 2.184 1.54.489 7.117 6.73 9.202 10.297 2.448 4.188 4.715 10.098 5.16 13.448.528 3.978-.751 3.084-1.79-1.25-1.7-7.091-5.199-13.487-10.04-18.348l-3.36-3.375-3.178.023c-1.746.012-3.823.299-4.615.637l-1.439.614 2.362 1.488c2.737 1.724 6.155 6.049 8.569 10.844 2.08 4.129 4.403 11.889 3.753 12.538-.587.587-1.227-.639-2.012-3.849-2.14-8.771-9.059-18.623-13.685-19.492-1.029-.192-2.787-.088-3.976.237-1.936.528-2.041.633-1.133 1.145 2.276 1.286 5.612 5.32 7.364 8.907 1.932 3.956 4.386 11.629 4.386 13.714 0 1.934-.917 1.368-1.508-.931-2.819-10.965-6.146-17.412-9.999-19.378-2.642-1.348-7.159-1.35-9.368-.002-.894.544-1.625 1.198-1.625 1.453 0 .254.975.935 2.167 1.512s2.639 1.553 3.215 2.17c3.644 3.897 9.406 17.549 7.078 16.774-.297-.1-.987-1.524-1.534-3.167-3.342-10.041-9.464-17.168-12.435-14.478-.751.679-1.222.718-2.983.243-2.72-.733-4.924-.232-5.611 1.274-.71 1.558.546 3.542 2.85 4.505 1.279.534 1.971 1.356 2.956 3.506 1.168 2.551 1.218 2.907.542 3.873-1.752 2.5-.129 5.14 5.705 9.279 2.53 1.796 3.748 1.892 7.508.594 2.085-.72 2.977-.814 3.875-.404.84.383 1.522.37 2.437-.047 1.023-.466 1.502-.426 2.462.202 1.081.709 1.334.708 2.729-.013 1.405-.727 1.641-.727 2.752.001 1.077.706 1.375.714 2.605.069 1.222-.64 1.529-.637 2.536.023 1.01.662 1.28.664 2.271.016.85-.555 1.41-.607 2.29-.213.81.362 1.588.362 2.55-.001 1.026-.387 1.707-.354 2.626.127 1.012.531 1.469.532 2.48.007.784-.406 1.65-.49 2.356-.229 2.712 1.004 9.729-1.869 11.172-4.573 1.683-3.154 8.33-8.609 16.17-13.27.839-.499.839-.649-.005-3.25-2.497-7.695-6.882-14.243-10.57-15.784-2.328-.972-2.844-.908-2.212.273.827 1.545.61 2.848-.746 4.458-3.68 4.374-12.668 3.84-12.135-.722.177-1.517.121-1.566-1.749-1.566-2.1 0-4.491-1.43-4.771-2.855-.328-1.668 1.046-3.815 3.279-5.123 4.525-2.651 10.548-1.17 10.015 2.465-.187 1.28-.078 1.376 1.56 1.376h1.761l-1.723-1.834c-5.168-5.501-9.168-7.293-13.579-6.084M408 203.06c-2.086.83-4 2.993-4 4.522 0 2.078 1.89 3.13 4.971 2.764l2.44-.288-.65 1.253c-.935 1.802-.373 3.194 1.627 4.029 3.68 1.537 9.612-1.409 9.612-4.773 0-2.011-1.333-2.702-4.799-2.486-2.552.16-3.329-.134-2.201-.831.945-.584.55-3.159-.611-3.971-1.239-.868-4.477-.979-6.389-.219m-.709 2.598c-1.482 1.084-.811 2.569 1.238 2.742 1.985.166 3.812-1.291 3.298-2.632-.368-.958-3.279-1.029-4.536-.11m7.209 3.697c-1.19.438-2.5 1.738-2.5 2.483 0 .376.568.943 1.263 1.259 2.765 1.26 6.387-2.179 3.77-3.58-1.048-.56-1.39-.582-2.533-.162m19.043 20.667c-5.515 3.016-12.063 8.578-13.565 11.521-1.86 3.646-6.86 5.35-15.978 5.443-3.607.037-8.502.066-9.625.057-.757-.007-1.825-.012-2.375-.012s-1.675-.004-2.5-.008c-2.408-.014-3.906-.01-5.375.013-.757.013-2.95-.08-4.875-.207-3.065-.202-4.809.022-7.75.995-1.851.612 5.966 3.45 11.375 4.127 2.514.316 9.176.174 21.75-.465 14.987-.762 18.763-1.103 21.811-1.972 8.776-2.502 12.064-5.816 12.064-12.155 0-2.809-1.072-7.473-1.944-8.461-.171-.195-1.527.311-3.012 1.124" fill-rule="evenodd" xmlns="http://www.w3.org/2000/svg" fill="#fff"/><path xmlns="http://www.w3.org/2000/svg" d="m166.3 221.485-25.77 38.55q-.22.29-.08.58.15.29.51.29h22.78v11.61h-45.7l25.84-38.54q.15-.3 0-.55-.14-.26-.51-.26H120.6v-11.68zm39.78-.07h10.95v51.17h-11.68v-21.31q0-.22-.25-.3-.26-.07-.41.15l-6.49 13.58h-9.13l-6.57-13.51q-.14-.29-.36-.22-.22.08-.22.37v21.24h-11.68v-51.17h10.87l12.2 25.26q.14.14.32.14.19 0 .26-.14zm60.37 11.83h-29.34q-.59 0-.59.58v9.71q0 .66.59.66h23.72v11.6h-23.72q-.59 0-.59.66v3.8q0 .58.59.58h29.34v11.68h-41.61v-51.1h41.61zm10-11.83h11.68v51.17h-11.68zm63.07 0-22.19 25.55 22.19 25.62h-15.4l-14.89-17.22q-.37-.37-.8-.19-.44.19-.44.7v16.71h-11.97v-51.17h11.97v16.72q0 .51.44.65.43.15.8-.22l14.89-17.15zm37.09 0 18.39 51.17h-12.41l-1.89-5.18q-.15-.51-.66-.51h-22.05q-.43 0-.65.51l-1.83 5.18H343.1l18.4-51.17zm-8.25 15.33-6.28 17.52q-.14.37.07.66.22.29.59.29h12.63q.95 0 .65-.95l-6.27-17.52q-.22-.51-.73-.51t-.66.51"/></svg>